<?xml version="1.0" standalone="no"?>
<!DOCTYPE svg PUBLIC "-//W3C//DTD SVG 20010904//EN"
 "http://www.w3.org/TR/2001/REC-SVG-20010904/DTD/svg10.dtd">
<svg version="1.0" xmlns="http://www.w3.org/2000/svg"
 width="269.000000pt" height="252.000000pt" viewBox="0 0 269.000000 252.000000"
 preserveAspectRatio="xMidYMid meet">

<g transform="translate(0.000000,252.000000) scale(0.100000,-0.100000)"
fill="#000000" stroke="none">
<path d="M1155 2439 c-142 -20 -300 -99 -394 -198 -43 -46 -112 -152 -140
-215 -44 -101 -81 -293 -81 -422 l0 -64 188 0 188 0 44 45 c42 43 45 48 48
113 2 37 -1 79 -7 95 -9 24 -16 27 -57 27 -31 0 -54 -7 -71 -20 -72 -57 -164
22 -122 103 7 12 17 25 23 29 19 13 71 9 92 -7 12 -9 44 -14 91 -15 l72 0 68
65 68 65 168 0 c155 0 170 -2 196 -21 26 -19 32 -20 56 -8 40 20 51 42 39 76
-14 42 -56 53 -94 25 -28 -21 -38 -22 -253 -22 -187 0 -227 -2 -237 -15 -7 -9
-29 -15 -55 -15 -52 0 -77 24 -78 76 -1 28 5 42 27 60 33 29 50 30 99 4 30
-16 56 -20 136 -20 55 0 106 2 113 5 11 4 13 25 10 95 -4 73 -2 91 10 95 25
10 171 -13 239 -36 125 -42 216 -108 285 -205 94 -132 134 -269 142 -486 l5
-148 -104 0 -104 0 -75 75 -75 74 -174 1 c-150 0 -177 -2 -193 -17 -28 -25
-86 -22 -109 6 -25 30 -25 92 -1 114 23 21 86 22 106 2 8 -8 24 -15 35 -15 20
0 21 6 21 80 l0 80 38 0 c33 0 45 -8 102 -65 l64 -65 84 0 c69 0 88 -4 109
-20 14 -11 36 -20 49 -20 51 0 83 69 49 104 -27 27 -55 29 -86 7 -23 -17 -43
-21 -101 -21 l-74 0 -64 65 -64 65 -106 0 -106 0 -52 -53 -52 -53 0 -128 0
-127 -55 -58 -55 -58 0 -68 c0 -56 4 -73 21 -91 45 -48 18 -138 -45 -149 -38
-8 -90 14 -100 40 -14 36 -6 84 19 113 28 33 35 108 13 130 -9 9 -75 12 -235
12 -216 0 -223 -1 -243 -22 -16 -18 -20 -35 -20 -94 0 -202 105 -436 213 -475
27 -10 39 -26 74 -98 29 -61 78 -132 170 -246 218 -272 266 -307 433 -313 117
-5 162 6 242 62 105 71 366 402 417 528 18 44 28 57 56 66 70 26 140 130 179
266 36 121 43 213 22 253 -20 40 -31 46 -86 53 l-45 5 -6 160 c-9 221 -32 331
-96 460 -52 102 -171 243 -195 229 -6 -4 -8 -3 -4 4 10 16 -97 78 -183 106
-133 44 -272 55 -426 35z m510 -919 l80 -80 113 0 113 0 -6 -47 c-3 -27 -8
-63 -11 -80 l-5 -33 -101 0 c-92 0 -102 2 -130 25 -36 30 -67 32 -102 4 -20
-16 -26 -29 -26 -58 0 -70 62 -98 123 -57 34 23 48 26 132 26 75 0 95 -3 95
-14 0 -36 -53 -274 -74 -336 -30 -86 -62 -134 -218 -330 -158 -197 -211 -238
-311 -240 l-38 0 3 112 3 113 46 6 c26 4 56 12 67 18 22 12 62 58 62 72 0 5
-81 9 -180 9 -104 0 -180 4 -180 9 0 29 57 59 130 70 43 6 45 7 48 44 2 26 8
37 19 37 9 0 36 9 60 21 48 23 93 87 93 133 0 26 -1 26 -42 -18 -56 -58 -115
-76 -160 -49 -17 10 -44 37 -61 60 l-30 43 41 157 c44 169 67 287 78 396 l6
67 142 0 141 0 80 -80z"/>
</g>
</svg>
